<svg width="390" height="844" viewBox="0 0 390 844" fill="none" xmlns="http://www.w3.org/2000/svg">
<path d="M390 0H0V844H390V0Z" fill="#08293F"/>
<path d="M111.973 400.938C110.637 405.213 108.48 408.369 105.915 410.54C103.905 412.24 101.644 413.337 99.3278 413.893C97.0812 414.434 94.7848 414.465 92.6163 414.049C91.2235 413.782 89.8838 413.328 88.6467 412.707C90.5867 413.531 92.2678 412.708 93.3936 411.847C93.7484 411.573 94.0752 411.266 94.3702 410.931C94.7432 410.504 95.0668 410.032 95.3337 409.531C96.8258 406.721 97.7295 403.964 98.0261 401.285C98.8351 393.955 95.098 387.207 86.4417 381.565C84.5599 380.337 82.446 379.164 80.0965 378.047C70.2863 373.388 57.9523 365.776 60.2883 353.897C60.935 350.606 62.2632 348.191 63.8465 346.419C64.4005 345.795 64.9873 345.252 65.5873 344.779C66.0716 344.393 66.5638 344.056 67.0565 343.758C69.7525 342.124 72.9142 341.443 76.0561 341.685C76.0676 341.687 76.0775 341.687 76.0858 341.687C76.1868 341.696 76.2882 341.704 76.3891 341.714C76.9744 341.771 77.5514 341.841 78.1201 341.921C84.7655 342.872 90.3578 345.457 94.9903 349.085V349.086C99.127 352.325 102.498 356.397 105.167 360.878C108.184 365.941 110.305 371.526 111.625 377.019C113.827 386.191 113.797 395.11 111.973 400.938Z" fill="#1CE496"/>
<path d="M95.7099 408.794C95.5887 409.038 95.4628 409.282 95.3337 409.527C94.8561 410.424 94.2015 411.223 93.3937 411.843C92.2678 412.704 90.5868 413.527 88.6467 412.702C86.0652 411.405 83.9216 409.373 82.6496 406.743C80.0233 401.319 79.2772 394.254 84.7734 384.352C85.274 383.446 85.8296 382.516 86.4414 381.561C88.7889 383.09 90.7753 384.702 92.4068 386.384C98.7983 392.977 99.7503 400.657 95.7099 408.794Z" fill="#D8FD00"/>
<path d="M136.85 359.837C136.762 360.639 136.496 361.48 135.979 362.34C134.102 365.451 122.321 368.637 113.804 375.201C113.049 375.781 112.32 376.389 111.625 377.026C110.816 373.657 109.705 370.255 108.271 366.959C107.933 366.18 107.576 365.408 107.202 364.644C106.577 363.366 105.898 362.11 105.167 360.884C105.918 360.282 106.658 359.718 107.384 359.19C118.64 351.017 127.081 351.4 131.213 352.408C133.688 353.013 135.733 354.798 136.544 357.204C136.812 358.002 136.955 358.891 136.85 359.837Z" fill="#D8FD00"/>
<path d="M115.101 344.976C112.574 349.536 106.814 351.194 102.233 348.682C102.185 348.656 102.135 348.628 102.089 348.6C99.1644 346.935 97.4663 343.939 97.3372 340.804C97.2691 339.143 97.6421 337.442 98.5078 335.878C101.033 331.319 106.795 329.66 111.376 332.172C112.127 332.583 112.798 333.081 113.387 333.649C114.841 335.041 115.783 336.846 116.128 338.77C116.499 340.822 116.191 343.008 115.101 344.976Z" fill="#1CE496"/>
<path d="M95.3344 409.527C94.8568 410.424 94.2018 411.223 93.3943 411.843C92.2685 412.704 90.5874 413.527 88.6474 412.702C88.6474 412.702 95.7256 413.895 96.0488 402.891C96.2777 395.15 90.6286 386.828 84.7745 384.352C85.275 383.446 85.8306 382.516 86.4425 381.561C98.264 389.265 100.91 399.034 95.3344 409.527Z" fill="#1CE496"/>
<path d="M135.979 362.335C134.102 365.447 122.321 368.633 113.804 375.197C113.049 375.776 112.32 376.385 111.625 377.022C110.816 373.653 109.705 370.251 108.271 366.955C116.327 359.811 129.729 355.145 132.899 355.782C137.397 356.686 135.979 362.335 135.979 362.335Z" fill="#C0DF08"/>
<path d="M113.804 375.195C113.049 375.774 112.32 376.383 111.625 377.02C110.305 371.526 108.185 365.941 105.167 360.878C105.918 360.276 106.658 359.712 107.384 359.184C107.384 359.184 111.728 366.451 113.804 375.195Z" fill="#1CE496"/>
<path d="M94.3701 410.938C93.8248 412.002 93.2395 413.041 92.6158 414.056C91.223 413.789 89.8833 413.335 88.6466 412.713C90.5866 413.538 92.2677 412.714 93.3935 411.853C93.7484 411.58 94.0751 411.273 94.3701 410.938Z" fill="#4BD9A2"/>
<path d="M98.0261 401.289C98.8352 393.959 95.0981 387.211 86.4418 381.569C84.5599 380.341 82.4461 379.168 80.0966 378.051C70.2863 373.392 57.9523 365.78 60.2883 353.902C61.1619 349.454 63.2794 346.605 65.5873 344.783C85.1666 350.43 99.4767 368.407 99.4767 389.709C99.4767 393.707 98.9726 397.587 98.0261 401.289Z" fill="#2A2A2A"/>
<path d="M115.101 344.979C112.574 349.539 106.814 351.197 102.233 348.685C102.185 348.658 102.135 348.63 102.089 348.602C101.541 347.31 101.24 345.892 101.24 344.402C101.24 344.307 101.241 344.215 101.243 344.123C101.392 338.274 106.203 333.577 112.116 333.577C112.545 333.577 112.97 333.602 113.386 333.651C114.84 335.044 115.782 336.848 116.127 338.772C116.498 340.824 116.191 343.011 115.101 344.979Z" fill="#1CE496"/>
<path d="M116.127 338.77C114.455 342.602 110.616 345.281 106.148 345.281C104.384 345.281 102.718 344.863 101.243 344.12C99.6899 343.338 98.3502 342.196 97.3372 340.804C97.2691 339.143 97.6421 337.442 98.5078 335.878C101.033 331.319 106.795 329.66 111.376 332.172C112.127 332.583 112.798 333.081 113.387 333.649C114.841 335.041 115.782 336.846 116.127 338.77Z" fill="#1CE496"/>
<path d="M98.9303 341.499C98.9303 341.875 98.9517 342.246 98.9949 342.611C99.2519 344.891 100.3 346.935 101.858 348.465C99.0745 346.775 97.4631 343.855 97.3372 340.805C97.2691 339.143 97.6421 337.442 98.5078 335.878C100.96 331.45 106.468 329.757 110.979 331.97C110.266 331.807 109.522 331.719 108.759 331.719C103.331 331.719 98.9303 336.098 98.9303 341.499Z" fill="#1CE496"/>
<path d="M111.973 400.938C110.637 405.213 108.48 408.369 105.915 410.54C103.905 412.24 101.644 413.337 99.3278 413.893C97.0812 414.434 94.7848 414.465 92.6163 414.049C91.2235 413.782 89.8838 413.328 88.6467 412.707C90.5867 413.531 92.2678 412.708 93.3936 411.847C93.7484 411.573 94.0752 411.266 94.3702 410.931C94.7432 410.504 95.0668 410.032 95.3337 409.531C96.8258 406.721 97.7295 403.964 98.0261 401.285C98.8351 393.955 95.098 387.207 86.4417 381.565C84.5599 380.337 82.446 379.164 80.0965 378.047C70.2863 373.388 57.9523 365.776 60.2883 353.897C60.935 350.606 62.2632 348.191 63.8465 346.419C64.4005 345.795 64.9873 345.252 65.5873 344.779C66.0716 344.393 66.5638 344.056 67.0565 343.758C69.7525 342.124 72.9142 341.443 76.0561 341.685C76.0676 341.687 76.0775 341.687 76.0858 341.687C76.1868 341.696 76.2882 341.704 76.3891 341.714C76.9744 341.771 77.5514 341.841 78.1201 341.921C84.7655 342.872 90.3578 345.457 94.9903 349.085V349.086C99.127 352.325 102.498 356.397 105.167 360.878C108.184 365.941 110.305 371.526 111.625 377.019C113.827 386.191 113.797 395.11 111.973 400.938Z" fill="#1CE496"/>
<path d="M165.939 379.391H176.552L166.712 411.614H155.326L150.428 392.234L145.487 411.614H134.1L124.304 379.391H134.874L140.417 401.073L145.916 379.391H154.896L160.396 401.073L165.939 379.391Z" fill="white"/>
<path d="M188.948 386.434C195.436 386.434 203.642 390.209 202.998 401.625H183.19C183.749 404.157 185.382 406.182 189.163 406.182C192.127 406.182 193.545 404.571 194.319 403.328H202.654C201.193 410.049 195.393 412.304 189.163 412.304C181.815 412.304 174.382 408.852 174.382 399.369C174.382 389.887 181.858 386.434 188.948 386.434ZM183.362 396.515H194.233C193.545 393.984 191.827 392.557 188.948 392.557C185.682 392.557 184.007 394.26 183.362 396.515Z" fill="white"/>
<path d="M218.907 386.434C225.395 386.434 233.602 390.209 232.957 401.625H213.149C213.708 404.157 215.341 406.182 219.122 406.182C222.087 406.182 223.504 404.571 224.278 403.328H232.613C231.153 410.049 225.352 412.304 219.122 412.304C211.775 412.304 204.341 408.852 204.341 399.369C204.341 389.887 211.818 386.434 218.907 386.434ZM213.321 396.515H224.192C223.504 393.984 221.786 392.557 218.907 392.557C215.642 392.557 213.966 394.26 213.321 396.515Z" fill="white"/>
<path d="M265.699 386.849H246.235V392.234H264.496V399.692H246.235V411.614H236.009V379.391H265.699V386.849Z" fill="white"/>
<path d="M273.411 385.237C270.575 385.237 268.556 383.534 268.556 380.496C268.556 377.458 270.575 375.709 273.411 375.709C276.247 375.709 278.266 377.458 278.266 380.496C278.266 383.534 276.247 385.237 273.411 385.237ZM268.728 411.614V387.079H278.094V411.614H268.728Z" fill="white"/>
<path d="M294.2 405.077H308.122V411.614H281.096V405.538L294.63 393.615H281.912V387.079H307.692V393.201L294.2 405.077Z" fill="white"/>
<path d="M323.404 405.077H337.326V411.614H310.3V405.538L323.834 393.615H311.116V387.079H336.896V393.201L323.404 405.077Z" fill="white"/>
<mask id="mask0_5266_648" style="mask-type:luminance" maskUnits="userSpaceOnUse" x="-2" y="243" width="256" height="383">
<path d="M254 243H-2V626H254V243Z" fill="white"/>
</mask>
<g mask="url(#mask0_5266_648)">
<path d="M147.596 564.439C141.896 584.085 132.694 598.591 121.751 608.567C113.177 616.378 103.53 621.42 93.6484 623.975C84.0641 626.462 74.2669 626.607 65.0154 624.696C59.0736 623.466 53.3581 621.382 48.0802 618.524C56.3569 622.315 63.5287 618.532 68.3318 614.573C69.8456 613.314 71.2394 611.905 72.498 610.366C74.0895 608.401 75.4698 606.233 76.6085 603.928C82.9744 591.015 86.8298 578.346 88.0952 566.031C91.5467 532.343 75.6033 501.333 38.6733 475.401C30.645 469.76 21.6266 464.369 11.603 459.235C-30.25 437.823 -82.87 402.838 -72.9039 348.246C-70.145 333.119 -64.4785 322.019 -57.7241 313.875C-55.3605 311.01 -52.8567 308.515 -50.2972 306.34C-48.231 304.565 -46.131 303.018 -44.0293 301.645C-32.5274 294.139 -19.0387 291.008 -5.63456 292.121C-5.58556 292.131 -5.54333 292.131 -5.50785 292.131C-5.07704 292.169 -4.64454 292.205 -4.21373 292.252C-1.7167 292.516 0.74485 292.835 3.17092 293.206C31.5218 297.574 55.3804 309.454 75.1437 326.128C75.137 326.136 75.1437 326.136 75.1437 326.136C92.7919 341.02 107.173 359.733 118.561 380.326C131.433 403.597 140.48 429.263 146.111 454.512C155.505 496.661 155.378 537.651 147.596 564.439Z" fill="white" fill-opacity="0.05"/>
<path d="M78.2135 600.561C77.6965 601.684 77.1593 602.805 76.6085 603.927C74.571 608.053 71.7783 611.722 68.3318 614.573C63.5287 618.531 56.3569 622.315 48.0803 618.522C37.0666 612.562 27.9216 603.221 22.495 591.135C11.2905 566.204 8.10756 533.737 31.5556 488.228C33.6911 484.065 36.0614 479.789 38.6716 475.399C48.6868 482.428 57.1611 489.837 64.1217 497.57C91.3896 527.868 95.4494 563.164 78.2118 600.559L78.2135 600.561Z" fill="white" fill-opacity="0.05"/>
<path d="M253.727 375.512C253.352 379.198 252.22 383.064 250.013 387.014C242.005 401.313 191.742 415.955 155.407 446.125C152.188 448.787 149.076 451.585 146.111 454.511C142.66 439.029 137.921 423.393 131.802 408.244C130.359 404.666 128.838 401.116 127.24 397.606C124.574 391.73 121.68 385.96 118.561 380.326C121.766 377.559 124.92 374.965 128.019 372.539C176.04 334.977 212.051 336.735 229.679 341.368C240.24 344.151 248.961 352.355 252.421 363.409C253.566 367.078 254.174 371.166 253.73 375.51L253.727 375.512Z" fill="white" fill-opacity="0.05"/>
<path d="M160.938 307.234C150.158 328.191 125.584 335.812 106.041 324.265C105.836 324.143 105.623 324.015 105.426 323.886C92.9491 316.237 85.7047 302.466 85.1539 288.059C84.8633 280.424 86.4548 272.606 90.148 265.418C100.92 244.469 125.502 236.841 145.045 248.388C148.25 250.277 151.114 252.566 153.626 255.174C159.83 261.574 163.847 269.868 165.319 278.709C166.904 288.141 165.588 298.188 160.94 307.234H160.938Z" fill="white" fill-opacity="0.05"/>
<g style="mix-blend-mode:multiply" opacity="0.2">
<path d="M76.6102 603.928C74.5727 608.053 71.7783 611.722 68.3335 614.573C63.5304 618.53 56.3586 622.315 48.0819 618.522C48.0819 618.522 78.2794 624.004 79.658 573.43C80.6345 537.855 56.5343 499.609 31.559 488.228C33.6944 484.065 36.0648 479.789 38.675 475.399C89.1088 510.808 100.398 555.703 76.6102 603.926V603.928Z" fill="white" fill-opacity="0.05"/>
</g>
<path d="M250.013 387.014C242.005 401.314 191.742 415.955 155.407 446.125C152.188 448.787 149.076 451.585 146.111 454.512C142.66 439.029 137.921 423.393 131.802 408.244C166.172 375.413 223.347 353.971 236.871 356.897C256.062 361.052 250.013 387.014 250.013 387.014Z" fill="white" fill-opacity="0.05"/>
<g style="mix-blend-mode:multiply" opacity="0.2">
<path d="M155.409 446.125C152.19 448.787 149.078 451.583 146.115 454.511C140.484 429.263 131.437 403.597 118.563 380.326C121.768 377.559 124.922 374.965 128.021 372.539C128.021 372.539 146.552 405.939 155.409 446.125Z" fill="white" fill-opacity="0.05"/>
</g>
<path d="M72.4981 610.366C70.1717 615.255 67.6747 620.033 65.0138 624.696C59.072 623.468 53.3565 621.382 48.0803 618.524C56.357 622.315 63.5288 618.531 68.3319 614.574C69.8457 613.316 71.2395 611.905 72.4981 610.366Z" fill="white" fill-opacity="0.05"/>
<g style="mix-blend-mode:multiply" opacity="0.15">
<path d="M88.0952 566.031C91.5468 532.343 75.6033 501.331 38.6733 475.4C30.645 469.758 21.6266 464.367 11.603 459.235C-30.25 437.823 -82.87 402.838 -72.9039 348.246C-69.1769 327.804 -60.1434 314.71 -50.2972 306.34C33.2332 332.293 94.2837 414.911 94.2837 512.813C94.2837 531.185 92.133 549.018 88.0952 566.033V566.031Z" fill="white" fill-opacity="0.05"/>
</g>
<path opacity="0.11" d="M160.938 307.234C150.158 328.191 125.584 335.812 106.041 324.265C105.836 324.143 105.623 324.015 105.426 323.886C103.091 317.95 101.803 311.428 101.803 304.581C101.803 304.148 101.81 303.724 101.817 303.299C102.454 276.42 122.981 254.833 148.205 254.833C150.036 254.833 151.847 254.947 153.623 255.173C159.826 261.574 163.844 269.868 165.315 278.709C166.9 288.141 165.584 298.188 160.936 307.234H160.938Z" fill="white" fill-opacity="0.05"/>
<path opacity="0.06" d="M165.316 278.709C158.179 296.323 141.803 308.636 122.741 308.636C115.215 308.636 108.107 306.711 101.817 303.299C95.1893 299.704 89.4738 294.458 85.1522 288.059C84.8616 280.424 86.4531 272.606 90.1463 265.418C100.918 244.469 125.5 236.841 145.044 248.388C148.249 250.277 151.112 252.566 153.624 255.174C159.828 261.574 163.846 269.868 165.317 278.709H165.316Z" fill="white" fill-opacity="0.05"/>
<g style="mix-blend-mode:multiply" opacity="0.88">
<path d="M91.9506 291.25C91.9506 292.98 92.0419 294.686 92.226 296.361C93.3225 306.839 97.7928 316.235 104.443 323.263C92.5656 315.5 85.6912 302.078 85.1539 288.059C84.8633 280.424 86.4548 272.606 90.148 265.418C100.609 245.068 124.108 237.288 143.354 247.455C140.313 246.705 137.137 246.303 133.883 246.303C110.724 246.303 91.9523 266.427 91.9523 291.25H91.9506Z" fill="white" fill-opacity="0.05"/>
</g>
<path opacity="0.5" d="M147.596 564.439C141.896 584.085 132.694 598.591 121.751 608.567C113.177 616.378 103.53 621.42 93.6484 623.975C84.0641 626.462 74.2669 626.607 65.0154 624.696C59.0736 623.466 53.3581 621.382 48.0802 618.524C56.3569 622.315 63.5287 618.532 68.3318 614.573C69.8456 613.314 71.2394 611.905 72.498 610.366C74.0895 608.401 75.4698 606.233 76.6085 603.928C82.9744 591.015 86.8298 578.346 88.0952 566.031C91.5467 532.343 75.6033 501.333 38.6733 475.401C30.645 469.76 21.6266 464.369 11.603 459.235C-30.25 437.823 -82.87 402.838 -72.9039 348.246C-70.145 333.119 -64.4785 322.019 -57.7241 313.875C-55.3605 311.01 -52.8567 308.515 -50.2972 306.34C-48.231 304.565 -46.131 303.018 -44.0293 301.645C-32.5274 294.139 -19.0387 291.008 -5.63456 292.121C-5.58556 292.131 -5.54333 292.131 -5.50785 292.131C-5.07704 292.169 -4.64454 292.205 -4.21373 292.252C-1.7167 292.516 0.74485 292.835 3.17092 293.206C31.5218 297.574 55.3804 309.454 75.1437 326.128C75.137 326.136 75.1437 326.136 75.1437 326.136C92.7919 341.02 107.173 359.733 118.561 380.326C131.433 403.597 140.48 429.263 146.111 454.512C155.505 496.661 155.378 537.651 147.596 564.439Z" fill="white" fill-opacity="0.05"/>
</g>
<mask id="mask1_5266_648" style="mask-type:luminance" maskUnits="userSpaceOnUse" x="165" y="-30" width="221" height="395">
<path d="M386 -30H165V365H386V-30Z" fill="white"/>
</mask>
<g mask="url(#mask1_5266_648)">
<path d="M388.917 291.439C383.253 311.085 374.111 325.591 363.239 335.567C354.721 343.378 345.137 348.42 335.319 350.975C325.797 353.462 316.064 353.607 306.873 351.696C300.969 350.466 295.291 348.382 290.048 345.524C298.27 349.315 305.396 345.532 310.167 341.573C311.671 340.314 313.056 338.905 314.307 337.366C315.888 335.401 317.259 333.233 318.39 330.928C324.715 318.015 328.545 305.346 329.802 293.031C333.231 259.343 317.392 228.333 280.702 202.401C272.726 196.76 263.766 191.369 253.808 186.235C212.227 164.823 159.949 129.838 169.85 75.246C172.591 60.1188 178.221 49.0192 184.931 40.8751C187.279 38.0101 189.767 35.5146 192.31 33.3396C194.363 31.5648 196.449 30.0182 198.537 28.6455C209.964 21.1389 223.365 18.0077 236.682 19.1215C236.731 19.1305 236.773 19.1305 236.808 19.1305C237.236 19.1685 237.666 19.2048 238.094 19.2519C240.574 19.5163 243.02 19.835 245.43 20.2062C273.597 24.5744 297.3 36.4545 316.935 53.1283C316.928 53.1356 316.935 53.1356 316.935 53.1356C334.468 68.0201 348.756 86.7331 360.07 107.326C372.859 130.597 381.847 156.263 387.441 181.512C396.773 223.661 396.648 264.651 388.917 291.439Z" fill="white" fill-opacity="0.05"/>
<path d="M319.985 327.561C319.471 328.684 318.937 329.805 318.39 330.927C316.366 335.053 313.592 338.722 310.167 341.573C305.396 345.531 298.27 349.315 290.048 345.522C279.106 339.562 270.02 330.221 264.629 318.135C253.497 293.204 250.335 260.737 273.63 215.228C275.752 211.065 278.107 206.789 280.7 202.399C290.65 209.428 299.069 216.837 305.985 224.57C333.075 254.868 337.109 290.164 319.983 327.559L319.985 327.561Z" fill="white" fill-opacity="0.05"/>
<path d="M494.357 102.512C493.984 106.198 492.86 110.064 490.668 114.014C482.712 128.313 432.775 142.955 396.676 173.125C393.479 175.787 390.387 178.585 387.441 181.511C384.012 166.029 379.304 150.393 373.225 135.244C371.791 131.666 370.28 128.116 368.693 124.606C366.044 118.73 363.169 112.96 360.07 107.326C363.254 104.559 366.388 101.965 369.466 99.5386C417.175 61.9768 452.952 63.7352 470.465 68.3678C480.958 71.1513 489.622 79.3551 493.059 90.4094C494.197 94.0785 494.802 98.1659 494.36 102.51L494.357 102.512Z" fill="white" fill-opacity="0.05"/>
<path d="M402.172 34.2342C391.461 55.191 367.048 62.8117 347.631 51.2648C347.428 51.1435 347.217 51.0149 347.02 50.8863C334.625 43.2366 327.427 29.4658 326.88 15.0594C326.591 7.42421 328.173 -0.39386 331.842 -7.5817C342.544 -28.5313 366.965 -36.1592 386.382 -24.6123C389.566 -22.7234 392.411 -20.4343 394.907 -17.8265C401.07 -11.4264 405.062 -3.13209 406.524 5.70919C408.098 15.1409 406.791 25.1883 402.173 34.2342H402.172Z" fill="white" fill-opacity="0.05"/>
<g style="mix-blend-mode:multiply" opacity="0.2">
<path d="M318.392 330.928C316.368 335.053 313.592 338.722 310.169 341.573C305.397 345.53 298.272 349.315 290.049 345.522C290.049 345.522 320.05 351.004 321.42 300.43C322.39 264.855 298.447 226.609 273.634 215.228C275.755 211.065 278.11 206.789 280.704 202.399C330.809 237.808 342.025 282.703 318.392 330.926V330.928Z" fill="white" fill-opacity="0.05"/>
</g>
<path d="M490.667 114.014C482.712 128.314 432.775 142.955 396.676 173.125C393.479 175.787 390.387 178.585 387.441 181.512C384.012 166.029 379.304 150.393 373.224 135.244C407.371 102.413 464.174 80.9705 477.611 83.8971C496.676 88.0515 490.667 114.014 490.667 114.014Z" fill="white" fill-opacity="0.05"/>
<g style="mix-blend-mode:multiply" opacity="0.2">
<path d="M396.678 173.125C393.48 175.787 390.389 178.583 387.445 181.511C381.85 156.263 372.862 130.597 360.072 107.326C363.256 104.559 366.39 101.965 369.468 99.5386C369.468 99.5386 387.879 132.939 396.678 173.125Z" fill="white" fill-opacity="0.05"/>
</g>
<path d="M314.307 337.366C311.995 342.255 309.515 347.033 306.871 351.696C300.968 350.468 295.289 348.382 290.048 345.524C298.27 349.315 305.396 345.531 310.168 341.574C311.671 340.316 313.056 338.905 314.307 337.366Z" fill="white" fill-opacity="0.05"/>
<g style="mix-blend-mode:multiply" opacity="0.15">
<path d="M329.802 293.031C333.231 259.343 317.392 228.331 280.702 202.4C272.726 196.758 263.766 191.367 253.808 186.235C212.227 164.823 159.949 129.838 169.85 75.246C173.553 54.8035 182.528 41.71 192.31 33.3396C275.297 59.293 335.951 141.911 335.951 239.813C335.951 258.185 333.814 276.018 329.802 293.033V293.031Z" fill="white" fill-opacity="0.05"/>
</g>
<path opacity="0.11" d="M402.171 34.234C391.461 55.1909 367.048 62.8115 347.631 51.2646C347.428 51.1433 347.216 51.0147 347.02 50.8861C344.7 44.9497 343.421 38.4283 343.421 31.5809C343.421 31.1481 343.428 30.7243 343.435 30.2987C344.068 3.42 364.461 -18.1671 389.521 -18.1671C391.34 -18.1671 393.14 -18.053 394.904 -17.8266C401.067 -11.4266 405.058 -3.13217 406.52 5.70911C408.095 15.1407 406.788 25.1881 402.171 34.234Z" fill="white" fill-opacity="0.05"/>
<path opacity="0.06" d="M406.52 5.70918C399.431 23.3229 383.161 35.6359 364.223 35.6359C356.745 35.6359 349.684 33.7108 343.435 30.2989C336.85 26.7041 331.172 21.4576 326.878 15.0594C326.59 7.42419 328.171 -0.393866 331.84 -7.58171C342.542 -28.5313 366.964 -36.1592 386.38 -24.6123C389.564 -22.7234 392.409 -20.4343 394.905 -17.8265C401.069 -11.4264 405.06 -3.1321 406.522 5.70918H406.52Z" fill="white" fill-opacity="0.05"/>
<g style="mix-blend-mode:multiply" opacity="0.88">
<path d="M333.633 18.2503C333.633 19.9798 333.723 21.6857 333.906 23.3609C334.996 33.8393 339.437 43.2348 346.043 50.2632C334.244 42.4995 327.414 29.0782 326.88 15.0593C326.591 7.42414 328.173 -0.393919 331.842 -7.58176C342.235 -27.9319 365.581 -35.7119 384.702 -25.545C381.681 -26.2948 378.525 -26.6968 375.292 -26.6968C352.284 -26.6968 333.634 -6.57303 333.634 18.2503H333.633Z" fill="white" fill-opacity="0.05"/>
</g>
<path opacity="0.5" d="M388.917 291.439C383.253 311.085 374.111 325.591 363.239 335.567C354.721 343.378 345.137 348.42 335.319 350.975C325.797 353.462 316.064 353.607 306.873 351.696C300.969 350.466 295.291 348.382 290.048 345.524C298.27 349.315 305.396 345.532 310.167 341.573C311.671 340.314 313.056 338.905 314.307 337.366C315.888 335.401 317.259 333.233 318.39 330.928C324.715 318.015 328.545 305.346 329.802 293.031C333.231 259.343 317.392 228.333 280.702 202.401C272.726 196.76 263.766 191.369 253.808 186.235C212.227 164.823 159.949 129.838 169.85 75.246C172.591 60.1188 178.221 49.0192 184.931 40.8751C187.279 38.0101 189.767 35.5146 192.31 33.3396C194.363 31.5648 196.449 30.0182 198.537 28.6455C209.964 21.1389 223.365 18.0077 236.682 19.1215C236.731 19.1305 236.773 19.1305 236.808 19.1305C237.236 19.1685 237.666 19.2048 238.094 19.2519C240.574 19.5163 243.02 19.835 245.43 20.2062C273.597 24.5744 297.3 36.4545 316.935 53.1283C316.928 53.1356 316.935 53.1356 316.935 53.1356C334.468 68.0201 348.756 86.7331 360.07 107.326C372.859 130.597 381.847 156.263 387.441 181.512C396.773 223.661 396.648 264.651 388.917 291.439Z" fill="white" fill-opacity="0.05"/>
</g>
<mask id="mask2_5266_648" style="mask-type:luminance" maskUnits="userSpaceOnUse" x="207" y="454" width="216" height="384">
<path d="M422.304 454H207V837.065H422.304V454Z" fill="white"/>
</mask>
<g mask="url(#mask2_5266_648)">
<path d="M479.621 775.494C473.488 795.143 463.586 809.651 451.812 819.63C442.587 827.442 432.207 832.485 421.575 835.04C411.263 837.527 400.721 837.672 390.767 835.761C384.374 834.531 378.224 832.447 372.546 829.588C381.451 833.379 389.168 829.596 394.336 825.636C395.964 824.377 397.464 822.968 398.818 821.428C400.531 819.463 402.016 817.295 403.241 814.989C410.09 802.075 414.239 789.403 415.6 777.086C419.314 743.392 402.159 712.377 362.424 686.441C353.786 680.799 344.083 675.407 333.298 670.271C288.266 648.856 231.649 613.866 242.372 559.264C245.34 544.134 251.437 533.033 258.705 524.887C261.248 522.022 263.942 519.526 266.696 517.35C268.919 515.575 271.178 514.028 273.44 512.655C285.815 505.148 300.328 502.016 314.751 503.13C314.804 503.139 314.849 503.139 314.887 503.139C315.351 503.177 315.816 503.213 316.28 503.26C318.966 503.525 321.615 503.843 324.225 504.215C354.73 508.584 380.4 520.466 401.665 537.142C401.658 537.15 401.665 537.15 401.665 537.15C420.654 552.037 436.127 570.753 448.38 591.349C462.23 614.625 471.964 640.294 478.023 665.548C488.13 707.704 487.994 748.701 479.621 775.494Z" fill="white" fill-opacity="0.05"/>
<path d="M404.968 811.622C404.412 812.745 403.834 813.866 403.241 814.989C401.049 819.115 398.044 822.785 394.336 825.636C389.168 829.596 381.451 833.379 372.546 829.587C360.696 823.626 350.856 814.283 345.017 802.194C332.962 777.26 329.537 744.787 354.766 699.27C357.064 695.106 359.614 690.83 362.422 686.439C373.198 693.469 382.316 700.879 389.806 708.613C419.145 738.916 423.513 774.219 404.966 811.62L404.968 811.622Z" fill="white" fill-opacity="0.05"/>
<g style="mix-blend-mode:multiply" opacity="0.2">
<path d="M403.243 814.989C401.051 819.115 398.044 822.785 394.337 825.636C389.169 829.594 381.453 833.379 372.548 829.587C372.548 829.587 405.039 835.069 406.522 784.487C407.573 748.906 381.642 710.653 354.77 699.27C357.067 695.106 359.618 690.83 362.426 686.439C416.691 721.854 428.837 766.756 403.243 814.987V814.989Z" fill="white" fill-opacity="0.05"/>
</g>
<path d="M398.818 821.428C396.315 826.319 393.629 831.097 390.766 835.761C384.372 834.533 378.223 832.447 372.546 829.588C381.451 833.379 389.168 829.596 394.336 825.638C395.964 824.379 397.464 822.968 398.818 821.428Z" fill="white" fill-opacity="0.05"/>
<g style="mix-blend-mode:multiply" opacity="0.15">
<path d="M415.6 777.086C419.314 743.392 402.159 712.375 362.424 686.439C353.786 680.797 344.083 675.405 333.298 670.271C288.266 648.856 231.649 613.866 242.372 559.264C246.382 538.818 256.102 525.722 266.696 517.35C356.571 543.308 422.259 625.94 422.259 723.859C422.259 742.235 419.945 760.071 415.6 777.088V777.086Z" fill="white" fill-opacity="0.05"/>
</g>
<path opacity="0.5" d="M479.621 775.494C473.488 795.143 463.586 809.651 451.812 819.63C442.587 827.442 432.207 832.485 421.575 835.04C411.263 837.527 400.721 837.672 390.767 835.761C384.374 834.531 378.224 832.447 372.546 829.588C381.451 833.379 389.168 829.596 394.336 825.636C395.964 824.377 397.464 822.968 398.818 821.428C400.531 819.463 402.016 817.295 403.241 814.989C410.09 802.075 414.239 789.403 415.6 777.086C419.314 743.392 402.159 712.377 362.424 686.441C353.786 680.799 344.083 675.407 333.298 670.271C288.266 648.856 231.649 613.866 242.372 559.264C245.34 544.134 251.437 533.033 258.705 524.887C261.248 522.022 263.942 519.526 266.696 517.35C268.919 515.575 271.178 514.028 273.44 512.655C285.815 505.148 300.328 502.016 314.751 503.13C314.804 503.139 314.849 503.139 314.887 503.139C315.351 503.177 315.816 503.213 316.28 503.26C318.966 503.525 321.615 503.843 324.225 504.215C354.73 508.584 380.4 520.466 401.665 537.142C401.658 537.15 401.665 537.15 401.665 537.15C420.654 552.037 436.127 570.753 448.38 591.349C462.23 614.625 471.964 640.294 478.023 665.548C488.13 707.704 487.994 748.701 479.621 775.494Z" fill="white" fill-opacity="0.05"/>
</g>
<path d="M120.959 141.494C114.826 161.143 104.925 175.651 93.1508 185.63C83.9256 193.442 73.546 198.485 62.9137 201.04C52.6014 203.527 42.06 203.672 32.1058 201.761C25.7126 200.531 19.563 198.447 13.8842 195.588C22.7896 199.379 30.5061 195.596 35.6741 191.636C37.3028 190.377 38.8025 188.968 40.1568 187.428C41.8691 185.463 43.3543 183.295 44.5795 180.989C51.4289 168.075 55.5771 155.403 56.9386 143.086C60.6524 109.392 43.4979 78.3771 3.76276 52.441C-4.8754 46.7988 -14.5788 41.4065 -25.3637 36.2715C-70.3959 14.8564 -127.013 -20.1343 -116.29 -74.7361C-113.321 -89.8659 -107.224 -100.967 -99.9568 -109.113C-97.4138 -111.978 -94.7198 -114.474 -91.9658 -116.65C-89.7427 -118.425 -87.4832 -119.972 -85.2218 -121.345C-72.8463 -128.852 -58.333 -131.984 -43.9107 -130.87C-43.858 -130.861 -43.8125 -130.861 -43.7743 -130.861C-43.3108 -130.823 -42.8455 -130.787 -42.3819 -130.74C-39.6952 -130.475 -37.0467 -130.157 -34.4363 -129.785C-3.93196 -125.416 21.7389 -113.534 43.0034 -96.8575C42.9962 -96.8503 43.0034 -96.8503 43.0034 -96.8503C61.9921 -81.9632 77.4651 -63.247 89.7189 -42.6506C103.569 -19.3754 113.303 6.2944 119.362 31.5476C129.469 73.7039 129.332 114.701 120.959 141.494Z" fill="white" fill-opacity="0.05"/>
<path d="M46.3064 177.622C45.7502 178.745 45.1721 179.866 44.5795 180.989C42.3873 185.115 39.3824 188.785 35.6742 191.636C30.5062 195.596 22.7896 199.379 13.8843 195.587C2.03411 189.626 -7.8056 180.283 -13.6444 168.194C-25.7 143.26 -29.1247 110.787 -3.89553 65.2705C-1.59784 61.1063 0.952522 56.8298 3.76101 52.4392C14.5369 59.4689 23.6549 66.8789 31.1442 74.6132C60.4834 104.916 64.8515 140.219 46.3046 177.62L46.3064 177.622Z" fill="white" fill-opacity="0.05"/>
<path d="M235.151 -47.4651C234.748 -43.7791 233.53 -39.912 231.156 -35.9615C222.54 -21.6595 168.458 -7.01512 129.363 23.1594C125.9 25.822 122.552 28.6205 119.362 31.5476C115.648 16.0627 110.549 0.423904 103.965 -14.7276C102.413 -18.3068 100.777 -21.8569 99.0569 -25.3672C96.1884 -31.2449 93.0745 -37.0157 89.7189 -42.6507C93.1672 -45.4184 96.5611 -48.0122 99.8949 -50.4393C151.564 -88.0076 190.31 -86.2488 209.277 -81.6155C220.64 -78.8315 230.023 -70.6263 233.746 -59.5701C234.979 -55.9004 235.633 -51.8123 235.155 -47.4669L235.151 -47.4651Z" fill="white" fill-opacity="0.05"/>
<g style="mix-blend-mode:multiply" opacity="0.2">
<path d="M44.5813 180.989C42.389 185.115 39.3824 188.785 35.6759 191.636C30.5079 195.594 22.7914 199.379 13.8861 195.587C13.8861 195.587 46.3773 201.069 47.8606 150.487C48.9113 114.906 22.9805 76.6527 -3.89197 65.2705C-1.59428 61.1063 0.956086 56.8298 3.76457 52.4392C58.0293 87.8538 70.1758 132.756 44.5813 180.987V180.989Z" fill="white" fill-opacity="0.05"/>
</g>
<path d="M231.156 -35.9616C222.54 -21.6595 168.458 -7.01517 129.363 23.1594C125.9 25.822 122.552 28.6205 119.362 31.5475C115.648 16.0627 110.549 0.423851 103.965 -14.7277C140.946 -47.5648 202.464 -69.0106 217.015 -66.0836C237.664 -61.9284 231.156 -35.9616 231.156 -35.9616Z" fill="white" fill-opacity="0.05"/>
<g style="mix-blend-mode:multiply" opacity="0.2">
<path d="M129.365 23.1595C125.902 25.8221 122.554 28.6188 119.365 31.5477C113.307 6.29446 103.572 -19.3753 89.7207 -42.6506C93.1691 -45.4183 96.5629 -48.0121 99.8967 -50.4392C99.8967 -50.4392 119.836 -17.0333 129.365 23.1595Z" fill="white" fill-opacity="0.05"/>
</g>
<path d="M40.1568 187.428C37.6537 192.319 34.967 197.097 32.104 201.761C25.7108 200.533 19.5612 198.447 13.8843 195.588C22.7896 199.379 30.5062 195.596 35.6742 191.638C37.3029 190.379 38.8026 188.968 40.1568 187.428Z" fill="white" fill-opacity="0.05"/>
<g style="mix-blend-mode:multiply" opacity="0.15">
<path d="M56.9386 143.086C60.6524 109.392 43.4979 78.3753 3.76277 52.4392C-4.87538 46.797 -14.5788 41.4047 -25.3637 36.2715C-70.3959 14.8564 -127.013 -20.1343 -116.29 -74.7361C-112.28 -95.1821 -102.56 -108.278 -91.9658 -116.65C-2.09053 -90.6919 63.5972 -8.06018 63.5972 89.8589C63.5972 108.235 61.2832 126.071 56.9386 143.088V143.086Z" fill="white" fill-opacity="0.05"/>
</g>
<path opacity="0.5" d="M120.959 141.494C114.826 161.143 104.925 175.651 93.1508 185.63C83.9256 193.442 73.546 198.485 62.9137 201.04C52.6014 203.527 42.06 203.672 32.1058 201.761C25.7126 200.531 19.563 198.447 13.8842 195.588C22.7896 199.379 30.5061 195.596 35.6741 191.636C37.3028 190.377 38.8025 188.968 40.1568 187.428C41.8691 185.463 43.3543 183.295 44.5795 180.989C51.4289 168.075 55.5771 155.403 56.9386 143.086C60.6524 109.392 43.4979 78.3771 3.76276 52.441C-4.8754 46.7988 -14.5788 41.4065 -25.3637 36.2715C-70.3959 14.8564 -127.013 -20.1343 -116.29 -74.7361C-113.321 -89.8659 -107.224 -100.967 -99.9568 -109.113C-97.4138 -111.978 -94.7198 -114.474 -91.9658 -116.65C-89.7427 -118.425 -87.4832 -119.972 -85.2218 -121.345C-72.8463 -128.852 -58.333 -131.984 -43.9107 -130.87C-43.858 -130.861 -43.8125 -130.861 -43.7743 -130.861C-43.3108 -130.823 -42.8455 -130.787 -42.3819 -130.74C-39.6952 -130.475 -37.0467 -130.157 -34.4363 -129.785C-3.93196 -125.416 21.7389 -113.534 43.0034 -96.8575C42.9962 -96.8503 43.0034 -96.8503 43.0034 -96.8503C61.9921 -81.9632 77.4651 -63.247 89.7189 -42.6506C103.569 -19.3754 113.303 6.2944 119.362 31.5476C129.469 73.7039 129.332 114.701 120.959 141.494Z" fill="white" fill-opacity="0.05"/>
<path d="M158.573 980.493C152.44 1000.14 142.538 1014.65 130.764 1024.63C121.539 1032.44 111.159 1037.48 100.527 1040.04C90.2146 1042.53 79.6733 1042.67 69.719 1040.76C63.3259 1039.53 57.1763 1037.45 51.4975 1034.59C60.4029 1038.38 68.1194 1034.59 73.2874 1030.64C74.9161 1029.38 76.4158 1027.97 77.77 1026.43C79.4824 1024.46 80.9675 1022.29 82.1927 1019.99C89.0422 1007.07 93.1904 994.402 94.5519 982.085C98.2656 948.391 81.1111 917.376 41.376 891.44C32.7379 885.798 23.0345 880.406 12.2495 875.271C-32.7826 853.856 -89.3996 818.865 -78.6764 764.263C-75.708 749.133 -69.6111 738.032 -62.3436 729.886C-59.8005 727.021 -57.1065 724.525 -54.3526 722.35C-52.1294 720.575 -49.8699 719.028 -47.6085 717.655C-35.233 710.147 -20.7198 707.015 -6.29741 708.129C-6.24469 708.138 -6.19925 708.138 -6.16108 708.138C-5.69754 708.176 -5.23219 708.212 -4.76865 708.259C-2.08195 708.524 0.566566 708.843 3.17692 709.214C33.6813 713.583 59.3522 725.465 80.6167 742.142C80.6094 742.149 80.6167 742.149 80.6167 742.149C99.6054 757.036 115.078 775.752 127.332 796.349C141.182 819.624 150.916 845.294 156.975 870.547C167.082 912.703 166.945 953.7 158.573 980.493Z" fill="white" fill-opacity="0.05"/>
<path d="M272.765 791.534C272.361 795.22 271.143 799.087 268.769 803.038C260.153 817.34 206.072 831.984 166.976 862.159C163.514 864.821 160.165 867.62 156.975 870.547C153.261 855.062 148.162 839.423 141.578 824.272C140.026 820.693 138.39 817.142 136.67 813.632C133.802 807.754 130.688 801.984 127.332 796.349C130.781 793.581 134.174 790.987 137.508 788.56C189.177 750.992 227.923 752.75 246.89 757.384C258.253 760.168 267.637 768.373 271.359 779.429C272.592 783.099 273.246 787.187 272.768 791.532L272.765 791.534Z" fill="white" fill-opacity="0.05"/>
<path d="M172.928 723.244C161.329 744.205 134.889 751.827 113.861 740.278C113.641 740.157 113.412 740.028 113.199 739.899C99.7745 732.248 91.9798 718.475 91.3872 704.066C91.0745 696.43 92.7869 688.61 96.7606 681.421C108.351 660.468 134.8 652.839 155.828 664.388C159.276 666.277 162.357 668.567 165.06 671.175C171.735 677.576 176.058 685.872 177.641 694.715C179.346 704.148 177.93 714.197 172.93 723.244H172.928Z" fill="white" fill-opacity="0.05"/>
<path d="M268.769 803.038C260.153 817.34 206.072 831.984 166.976 862.159C163.514 864.821 160.165 867.62 156.975 870.547C153.261 855.062 148.162 839.423 141.578 824.272C178.559 791.434 240.077 769.989 254.629 772.916C275.277 777.071 268.769 803.038 268.769 803.038Z" fill="white" fill-opacity="0.05"/>
<g style="mix-blend-mode:multiply" opacity="0.2">
<path d="M166.978 862.159C163.515 864.821 160.167 867.618 156.979 870.547C150.92 845.294 141.186 819.624 127.334 796.349C130.782 793.581 134.176 790.987 137.51 788.56C137.51 788.56 157.449 821.966 166.978 862.159Z" fill="white" fill-opacity="0.05"/>
</g>
<g style="mix-blend-mode:multiply" opacity="0.15">
<path d="M94.5519 982.085C98.2657 948.391 81.1112 917.375 41.376 891.438C32.7379 885.796 23.0345 880.404 12.2496 875.271C-32.7826 853.856 -89.3996 818.865 -78.6764 764.263C-74.6664 743.817 -64.9466 730.721 -54.3525 722.35C35.5227 748.307 101.21 830.939 101.21 928.858C101.21 947.234 98.8964 965.07 94.5519 982.087V982.085Z" fill="white" fill-opacity="0.05"/>
</g>
<path opacity="0.11" d="M172.928 723.244C161.329 744.205 134.889 751.827 113.861 740.278C113.641 740.157 113.412 740.028 113.199 739.899C110.687 733.962 109.302 727.439 109.302 720.591C109.302 720.158 109.309 719.734 109.316 719.308C110.001 692.425 132.088 670.834 159.227 670.834C161.198 670.834 163.146 670.948 165.057 671.175C171.732 677.576 176.054 685.872 177.638 694.715C179.343 704.148 177.927 714.197 172.926 723.244H172.928Z" fill="white" fill-opacity="0.05"/>
<path opacity="0.06" d="M177.638 694.715C169.959 712.331 152.34 724.646 131.829 724.646C123.731 724.646 116.084 722.721 109.316 719.308C102.185 715.713 96.0353 710.466 91.3853 704.066C91.0727 696.43 92.785 688.61 96.7587 681.421C108.349 660.468 134.798 652.839 155.826 664.388C159.274 666.277 162.356 668.567 165.059 671.175C171.734 677.576 176.056 685.872 177.64 694.715H177.638Z" fill="white" fill-opacity="0.05"/>
<g style="mix-blend-mode:multiply" opacity="0.88">
<path d="M98.7001 707.258C98.7001 708.988 98.7983 710.694 98.9964 712.369C100.176 722.849 104.986 732.247 112.141 739.276C99.3618 731.511 91.9652 718.088 91.3872 704.066C91.0745 696.43 92.7869 688.61 96.7606 681.421C108.016 661.068 133.3 653.286 154.008 663.455C150.736 662.705 147.319 662.303 143.818 662.303C118.899 662.303 98.702 682.43 98.702 707.258H98.7001Z" fill="white" fill-opacity="0.05"/>
</g>
<path opacity="0.5" d="M158.573 980.493C152.44 1000.14 142.538 1014.65 130.764 1024.63C121.539 1032.44 111.159 1037.48 100.527 1040.04C90.2146 1042.53 79.6733 1042.67 69.719 1040.76C63.3259 1039.53 57.1763 1037.45 51.4975 1034.59C60.4029 1038.38 68.1194 1034.59 73.2874 1030.64C74.9161 1029.38 76.4158 1027.97 77.77 1026.43C79.4824 1024.46 80.9675 1022.29 82.1927 1019.99C89.0422 1007.07 93.1904 994.402 94.5519 982.085C98.2656 948.391 81.1111 917.376 41.376 891.44C32.7379 885.798 23.0345 880.406 12.2495 875.271C-32.7826 853.856 -89.3996 818.865 -78.6764 764.263C-75.708 749.133 -69.6111 738.032 -62.3436 729.886C-59.8005 727.021 -57.1065 724.525 -54.3526 722.35C-52.1294 720.575 -49.8699 719.028 -47.6085 717.655C-35.233 710.147 -20.7198 707.015 -6.29741 708.129C-6.24469 708.138 -6.19925 708.138 -6.16108 708.138C-5.69754 708.176 -5.23219 708.212 -4.76865 708.259C-2.08195 708.524 0.566566 708.843 3.17692 709.214C33.6813 713.583 59.3522 725.465 80.6167 742.142C80.6094 742.149 80.6167 742.149 80.6167 742.149C99.6054 757.036 115.078 775.752 127.332 796.349C141.182 819.624 150.916 845.294 156.975 870.547C167.082 912.703 166.945 953.7 158.573 980.493Z" fill="white" fill-opacity="0.05"/>
</svg>
