<svg width="390" height="379" viewBox="0 0 390 379" fill="none" xmlns="http://www.w3.org/2000/svg">
<g filter="url(#filter0_d_7932_620)">
<rect x="30" y="28" width="334" height="315" rx="12" fill="white"/>
<rect x="90" y="276" width="214" height="46" rx="8" fill="#4B56DB"/>
<path d="M175.136 302.056L178.032 293.8H179.904L175.808 305H174.432L170.336 293.8H172.24L175.136 302.056ZM186.986 297H188.602V305H186.986V303.976C186.292 304.776 185.375 305.176 184.234 305.176C183.53 305.176 182.863 304.995 182.234 304.632C181.615 304.269 181.119 303.773 180.746 303.144C180.372 302.504 180.186 301.789 180.186 301C180.186 300.211 180.372 299.501 180.746 298.872C181.119 298.232 181.615 297.731 182.234 297.368C182.863 297.005 183.53 296.824 184.234 296.824C185.375 296.824 186.292 297.224 186.986 298.024V297ZM184.442 303.624C184.922 303.624 185.359 303.512 185.754 303.288C186.148 303.053 186.458 302.739 186.682 302.344C186.906 301.939 187.018 301.491 187.018 301C187.018 300.509 186.906 300.067 186.682 299.672C186.458 299.267 186.148 298.952 185.754 298.728C185.359 298.493 184.922 298.376 184.442 298.376C183.962 298.376 183.524 298.493 183.13 298.728C182.735 298.952 182.426 299.267 182.202 299.672C181.978 300.067 181.866 300.509 181.866 301C181.866 301.491 181.978 301.939 182.202 302.344C182.426 302.739 182.735 303.053 183.13 303.288C183.524 303.512 183.962 303.624 184.442 303.624ZM192.646 305H190.982V293.48H192.646V305ZM196.675 305H195.011V297H196.675V305ZM196.739 295.576H194.915V293.88H196.739V295.576ZM205.157 293.48H206.821V305H205.205V303.976C204.511 304.776 203.594 305.176 202.453 305.176C201.749 305.176 201.082 304.995 200.453 304.632C199.834 304.269 199.338 303.773 198.965 303.144C198.591 302.504 198.405 301.789 198.405 301C198.405 300.211 198.591 299.501 198.965 298.872C199.338 298.232 199.834 297.731 200.453 297.368C201.082 297.005 201.749 296.824 202.453 296.824C203.573 296.824 204.474 297.208 205.157 297.976V293.48ZM202.661 303.624C203.141 303.624 203.578 303.512 203.973 303.288C204.367 303.053 204.677 302.739 204.901 302.344C205.125 301.939 205.237 301.491 205.237 301C205.237 300.509 205.125 300.067 204.901 299.672C204.677 299.267 204.367 298.952 203.973 298.728C203.578 298.493 203.141 298.376 202.661 298.376C202.181 298.376 201.743 298.493 201.349 298.728C200.954 298.952 200.645 299.267 200.421 299.672C200.197 300.067 200.085 300.509 200.085 301C200.085 301.491 200.197 301.939 200.421 302.344C200.645 302.739 200.954 303.053 201.349 303.288C201.743 303.512 202.181 303.624 202.661 303.624ZM212.751 296.824C213.476 296.824 214.148 297 214.767 297.352C215.396 297.693 215.892 298.168 216.255 298.776C216.628 299.384 216.815 300.072 216.815 300.84C216.815 301.117 216.794 301.368 216.751 301.592H210.367C210.463 302.264 210.719 302.792 211.135 303.176C211.562 303.56 212.1 303.752 212.751 303.752C213.722 303.752 214.426 303.368 214.863 302.6H216.575C216.255 303.389 215.764 304.019 215.103 304.488C214.452 304.947 213.668 305.176 212.751 305.176C212.004 305.176 211.316 305 210.687 304.648C210.058 304.285 209.556 303.789 209.183 303.16C208.82 302.52 208.639 301.8 208.639 301C208.639 300.2 208.82 299.485 209.183 298.856C209.556 298.216 210.058 297.72 210.687 297.368C211.316 297.005 212.004 296.824 212.751 296.824ZM212.751 298.248C212.122 298.248 211.599 298.424 211.183 298.776C210.778 299.128 210.516 299.613 210.399 300.232H215.087C215.002 299.645 214.751 299.171 214.335 298.808C213.919 298.435 213.391 298.248 212.751 298.248ZM223.263 296.904V298.456H222.351C221.743 298.456 221.226 298.664 220.799 299.08C220.383 299.485 220.175 300.008 220.175 300.648V305H218.511V297H220.127V298.024C220.789 297.277 221.615 296.904 222.607 296.904H223.263Z" fill="white"/>
<path d="M325.824 51.632L332 57.808L338.144 51.664C338.28 51.5195 338.443 51.4039 338.625 51.3242C338.806 51.2445 339.002 51.2022 339.2 51.2C339.624 51.2 340.031 51.3685 340.331 51.6686C340.631 51.9686 340.8 52.3756 340.8 52.8C340.804 52.9961 340.767 53.191 340.693 53.3726C340.619 53.5542 340.508 53.7186 340.368 53.856L334.144 60L340.368 66.224C340.632 66.4819 340.786 66.8313 340.8 67.2C340.8 67.6243 340.631 68.0313 340.331 68.3313C340.031 68.6314 339.624 68.8 339.2 68.8C338.996 68.8084 338.793 68.7744 338.603 68.7C338.413 68.6256 338.24 68.5126 338.096 68.368L332 62.192L325.84 68.352C325.705 68.4916 325.543 68.6031 325.365 68.68C325.186 68.7569 324.994 68.7976 324.8 68.8C324.376 68.8 323.969 68.6314 323.669 68.3313C323.369 68.0313 323.2 67.6243 323.2 67.2C323.196 67.0038 323.233 66.8089 323.307 66.6273C323.381 66.4458 323.492 66.2813 323.632 66.144L329.856 60L323.632 53.776C323.368 53.518 323.214 53.1686 323.2 52.8C323.2 52.3756 323.369 51.9686 323.669 51.6686C323.969 51.3685 324.376 51.2 324.8 51.2C325.184 51.2048 325.552 51.36 325.824 51.632Z" fill="#08293F"/>
<rect x="48" y="171" width="300" height="82" rx="8" fill="white"/>
<rect x="47.5" y="170.5" width="301" height="83" rx="8.5" stroke="#08293F" stroke-opacity="0.5"/>
<path d="M69.308 196.589C68.168 196.589 67.112 196.301 66.14 195.725C65.18 195.149 64.412 194.363 63.836 193.367C63.272 192.371 62.99 191.285 62.99 190.109C62.99 188.933 63.272 187.847 63.836 186.851C64.412 185.855 65.18 185.069 66.14 184.493C67.112 183.917 68.168 183.629 69.308 183.629C70.628 183.629 71.792 183.995 72.8 184.727C73.808 185.459 74.564 186.443 75.068 187.679H73.916C73.46 186.731 72.83 185.993 72.026 185.465C71.222 184.925 70.316 184.655 69.308 184.655C68.372 184.655 67.502 184.895 66.698 185.375C65.906 185.855 65.276 186.515 64.808 187.355C64.34 188.183 64.106 189.101 64.106 190.109C64.106 191.117 64.34 192.041 64.808 192.881C65.276 193.709 65.906 194.363 66.698 194.843C67.502 195.323 68.372 195.563 69.308 195.563C70.328 195.563 71.246 195.293 72.062 194.753C72.89 194.213 73.526 193.475 73.97 192.539H75.122C74.618 193.775 73.856 194.759 72.836 195.491C71.816 196.223 70.64 196.589 69.308 196.589ZM81.1959 196.589C80.3559 196.589 79.5879 196.391 78.8919 195.995C78.1959 195.587 77.6439 195.035 77.2359 194.339C76.8399 193.631 76.6419 192.851 76.6419 191.999C76.6419 191.147 76.8399 190.373 77.2359 189.677C77.6439 188.969 78.1959 188.417 78.8919 188.021C79.5879 187.613 80.3559 187.409 81.1959 187.409C82.0239 187.409 82.7859 187.613 83.4819 188.021C84.1779 188.417 84.7299 188.969 85.1379 189.677C85.5459 190.373 85.7499 191.147 85.7499 191.999C85.7499 192.851 85.5459 193.631 85.1379 194.339C84.7299 195.035 84.1779 195.587 83.4819 195.995C82.7859 196.391 82.0239 196.589 81.1959 196.589ZM81.1959 195.617C81.8319 195.617 82.4139 195.461 82.9419 195.149C83.4819 194.837 83.9079 194.405 84.2199 193.853C84.5319 193.301 84.6879 192.683 84.6879 191.999C84.6879 191.315 84.5319 190.697 84.2199 190.145C83.9079 189.593 83.4819 189.161 82.9419 188.849C82.4139 188.537 81.8319 188.381 81.1959 188.381C80.5599 188.381 79.9719 188.537 79.4319 188.849C78.9039 189.161 78.4839 189.593 78.1719 190.145C77.8599 190.697 77.7039 191.315 77.7039 191.999C77.7039 192.683 77.8599 193.301 78.1719 193.853C78.4839 194.405 78.9039 194.837 79.4319 195.149C79.9719 195.461 80.5599 195.617 81.1959 195.617ZM97.4128 187.409C98.0608 187.409 98.6308 187.571 99.1228 187.895C99.6148 188.219 99.9928 188.663 100.257 189.227C100.521 189.791 100.653 190.421 100.653 191.117V196.409H99.6268V191.117C99.6268 190.337 99.4108 189.689 98.9788 189.173C98.5588 188.645 97.9888 188.381 97.2688 188.381C96.8248 188.381 96.4108 188.507 96.0268 188.759C95.6428 188.999 95.3368 189.329 95.1088 189.749C94.8808 190.169 94.7668 190.625 94.7668 191.117V196.409H93.7408V191.117C93.7408 190.349 93.5308 189.701 93.1108 189.173C92.7028 188.645 92.1268 188.381 91.3828 188.381C90.9388 188.381 90.5248 188.507 90.1408 188.759C89.7568 189.011 89.4508 189.347 89.2228 189.767C88.9948 190.187 88.8808 190.637 88.8808 191.117V196.409H87.8548V187.589H88.8808V188.957C89.1688 188.465 89.5408 188.087 89.9968 187.823C90.4648 187.547 90.9748 187.409 91.5268 187.409C92.1748 187.409 92.7568 187.589 93.2728 187.949C93.7888 188.309 94.1668 188.777 94.4068 189.353C94.6948 188.729 95.1028 188.249 95.6308 187.913C96.1708 187.577 96.7648 187.409 97.4128 187.409ZM112.899 187.409C113.547 187.409 114.117 187.571 114.609 187.895C115.101 188.219 115.479 188.663 115.743 189.227C116.007 189.791 116.139 190.421 116.139 191.117V196.409H115.113V191.117C115.113 190.337 114.897 189.689 114.465 189.173C114.045 188.645 113.475 188.381 112.755 188.381C112.311 188.381 111.897 188.507 111.513 188.759C111.129 188.999 110.823 189.329 110.595 189.749C110.367 190.169 110.253 190.625 110.253 191.117V196.409H109.227V191.117C109.227 190.349 109.017 189.701 108.597 189.173C108.189 188.645 107.613 188.381 106.869 188.381C106.425 188.381 106.011 188.507 105.627 188.759C105.243 189.011 104.937 189.347 104.709 189.767C104.481 190.187 104.367 190.637 104.367 191.117V196.409H103.341V187.589H104.367V188.957C104.655 188.465 105.027 188.087 105.483 187.823C105.951 187.547 106.461 187.409 107.013 187.409C107.661 187.409 108.243 187.589 108.759 187.949C109.275 188.309 109.653 188.777 109.893 189.353C110.181 188.729 110.589 188.249 111.117 187.913C111.657 187.577 112.251 187.409 112.899 187.409ZM122.571 187.409C123.387 187.409 124.125 187.607 124.785 188.003C125.457 188.387 125.979 188.915 126.351 189.587C126.735 190.247 126.927 190.979 126.927 191.783C126.927 191.915 126.915 192.101 126.891 192.341H119.241C119.301 193.313 119.637 194.105 120.249 194.717C120.873 195.317 121.641 195.617 122.553 195.617C123.261 195.617 123.873 195.455 124.389 195.131C124.905 194.795 125.301 194.351 125.577 193.799H126.675C126.315 194.699 125.775 195.389 125.055 195.869C124.347 196.349 123.507 196.589 122.535 196.589C121.731 196.589 120.993 196.391 120.321 195.995C119.661 195.587 119.133 195.035 118.737 194.339C118.353 193.631 118.161 192.851 118.161 191.999C118.161 191.147 118.353 190.373 118.737 189.677C119.133 188.969 119.667 188.417 120.339 188.021C121.011 187.613 121.755 187.409 122.571 187.409ZM122.571 188.381C121.695 188.381 120.951 188.657 120.339 189.209C119.739 189.749 119.379 190.475 119.259 191.387H125.847C125.799 190.835 125.631 190.331 125.343 189.875C125.055 189.419 124.671 189.059 124.191 188.795C123.711 188.519 123.171 188.381 122.571 188.381ZM132.948 187.409C133.656 187.409 134.274 187.577 134.802 187.913C135.342 188.237 135.756 188.687 136.044 189.263C136.332 189.839 136.476 190.487 136.476 191.207V196.409H135.45V191.279C135.45 190.427 135.222 189.731 134.766 189.191C134.322 188.651 133.668 188.381 132.804 188.381C132.288 188.381 131.814 188.507 131.382 188.759C130.962 189.011 130.626 189.353 130.374 189.785C130.134 190.205 130.014 190.667 130.014 191.171V196.409H128.988V187.589H130.014V188.957C130.338 188.477 130.758 188.099 131.274 187.823C131.79 187.547 132.348 187.409 132.948 187.409ZM142.896 188.543H140.646V193.961C140.646 194.429 140.772 194.795 141.024 195.059C141.276 195.311 141.624 195.437 142.068 195.437H142.896V196.409H142.014C141.282 196.409 140.7 196.193 140.268 195.761C139.836 195.317 139.62 194.735 139.62 194.015V188.543H138.18V187.589H139.62V185.249H140.646V187.589H142.896V188.543ZM152.205 187.589H153.231V196.409H152.205V194.735C151.845 195.299 151.353 195.749 150.729 196.085C150.105 196.421 149.427 196.589 148.695 196.589C147.879 196.589 147.123 196.391 146.427 195.995C145.743 195.587 145.197 195.035 144.789 194.339C144.393 193.631 144.195 192.851 144.195 191.999C144.195 191.147 144.393 190.373 144.789 189.677C145.197 188.969 145.743 188.417 146.427 188.021C147.123 187.613 147.879 187.409 148.695 187.409C149.427 187.409 150.105 187.577 150.729 187.913C151.353 188.249 151.845 188.699 152.205 189.263V187.589ZM148.749 195.617C149.397 195.617 149.985 195.461 150.513 195.149C151.053 194.837 151.479 194.405 151.791 193.853C152.103 193.301 152.259 192.683 152.259 191.999C152.259 191.315 152.103 190.697 151.791 190.145C151.479 189.593 151.053 189.161 150.513 188.849C149.985 188.537 149.397 188.381 148.749 188.381C148.113 188.381 147.525 188.537 146.985 188.849C146.457 189.161 146.037 189.593 145.725 190.145C145.413 190.697 145.257 191.315 145.257 191.999C145.257 192.683 145.413 193.301 145.725 193.853C146.037 194.405 146.457 194.837 146.985 195.149C147.525 195.461 148.113 195.617 148.749 195.617ZM157.031 196.409H156.005V187.589H157.031V196.409ZM157.139 185.753H155.879V184.403H157.139V185.753ZM164.374 187.499V188.471H163.51C163.03 188.471 162.58 188.597 162.16 188.849C161.752 189.101 161.428 189.443 161.188 189.875C160.948 190.295 160.828 190.757 160.828 191.261V196.409H159.802V187.589H160.828V189.029C161.14 188.549 161.542 188.177 162.034 187.913C162.538 187.637 163.078 187.499 163.654 187.499H164.374ZM169.575 187.409C170.391 187.409 171.129 187.607 171.789 188.003C172.461 188.387 172.983 188.915 173.355 189.587C173.739 190.247 173.931 190.979 173.931 191.783C173.931 191.915 173.919 192.101 173.895 192.341H166.245C166.305 193.313 166.641 194.105 167.253 194.717C167.877 195.317 168.645 195.617 169.557 195.617C170.265 195.617 170.877 195.455 171.393 195.131C171.909 194.795 172.305 194.351 172.581 193.799H173.679C173.319 194.699 172.779 195.389 172.059 195.869C171.351 196.349 170.511 196.589 169.539 196.589C168.735 196.589 167.997 196.391 167.325 195.995C166.665 195.587 166.137 195.035 165.741 194.339C165.357 193.631 165.165 192.851 165.165 191.999C165.165 191.147 165.357 190.373 165.741 189.677C166.137 188.969 166.671 188.417 167.343 188.021C168.015 187.613 168.759 187.409 169.575 187.409ZM169.575 188.381C168.699 188.381 167.955 188.657 167.343 189.209C166.743 189.749 166.383 190.475 166.263 191.387H172.851C172.803 190.835 172.635 190.331 172.347 189.875C172.059 189.419 171.675 189.059 171.195 188.795C170.715 188.519 170.175 188.381 169.575 188.381Z" fill="#898989"/>
</g>
<defs>
<filter id="filter0_d_7932_620" x="-1.9" y="0.1" width="397.8" height="378.8" filterUnits="userSpaceOnUse" color-interpolation-filters="sRGB">
<feFlood flood-opacity="0" result="BackgroundImageFix"/>
<feColorMatrix in="SourceAlpha" type="matrix" values="0 0 0 0 0 0 0 0 0 0 0 0 0 0 0 0 0 0 127 0" result="hardAlpha"/>
<feOffset dy="4"/>
<feGaussianBlur stdDeviation="15.95"/>
<feComposite in2="hardAlpha" operator="out"/>
<feColorMatrix type="matrix" values="0 0 0 0 0 0 0 0 0 0 0 0 0 0 0 0 0 0 0.25 0"/>
<feBlend mode="normal" in2="BackgroundImageFix" result="effect1_dropShadow_7932_620"/>
<feBlend mode="normal" in="SourceGraphic" in2="effect1_dropShadow_7932_620" result="shape"/>
</filter>
</defs>
</svg>
