<svg width="278" height="84" viewBox="0 0 278 84" fill="none" xmlns="http://www.w3.org/2000/svg">
<path d="M51.973 69.9383C50.6369 74.2129 48.4799 77.3693 45.9149 79.5401C43.9052 81.2396 41.644 82.3367 39.3278 82.8927C37.0812 83.4337 34.7848 83.4652 32.6163 83.0495C31.2235 82.7819 29.8838 82.3284 28.6467 81.7066C30.5867 82.5313 32.2678 81.7082 33.3936 80.8468C33.7485 80.5729 34.0752 80.2663 34.3702 79.9314C34.7432 79.5038 35.0668 79.0322 35.3337 78.5305C36.8258 75.721 37.7295 72.9642 38.0261 70.2847C38.8351 62.9545 35.098 56.2072 26.4417 50.5648C24.5599 49.3374 22.446 48.1643 20.0965 47.0472C10.2863 42.3883 -2.0477 34.7761 0.28834 22.8974C0.935017 19.606 2.26322 17.1908 3.84645 15.4188C4.40046 14.7954 4.98734 14.2524 5.58729 13.7791C6.07161 13.393 6.56384 13.0565 7.05647 12.7578C9.75248 11.1244 12.9142 10.4431 16.0561 10.6855C16.0676 10.6874 16.0775 10.6874 16.0858 10.6874C16.1868 10.6957 16.2882 10.7036 16.3891 10.7138C16.9744 10.7714 17.5514 10.8407 18.1201 10.9215C24.7655 11.8719 30.3578 14.4569 34.9903 18.0849C34.9887 18.0865 34.9903 18.0865 34.9903 18.0865C39.127 21.3252 42.4978 25.3969 45.1673 29.8776C48.1844 34.9412 50.3051 40.5256 51.6249 46.0195C53.8267 55.1906 53.797 64.1095 51.973 69.9383Z" fill="#1CE496"/>
<path d="M35.7099 77.7941C35.5887 78.0384 35.4628 78.2823 35.3337 78.5266C34.8561 79.4243 34.2015 80.2226 33.3937 80.8428C32.2678 81.7042 30.5868 82.5274 28.6467 81.7023C26.0652 80.4055 23.9216 78.3729 22.6496 75.7431C20.0233 70.3186 19.2772 63.2541 24.7734 53.352C25.274 52.4461 25.8296 51.5157 26.4414 50.5606C28.7889 52.0899 30.7753 53.7019 32.4068 55.3845C38.7983 61.9769 39.7499 69.657 35.7095 77.7937L35.7099 77.7941Z" fill="#D8FD00"/>
<path d="M76.8497 28.837C76.7618 29.6389 76.4965 30.4802 75.9793 31.3396C74.1022 34.451 62.3206 37.6369 53.8037 44.2014C53.0493 44.7806 52.3199 45.3894 51.6249 46.0262C50.8159 42.6575 49.7051 39.2553 48.2707 35.959C47.9326 35.1804 47.5761 34.4081 47.2015 33.6444C46.5766 32.3657 45.8983 31.1103 45.1672 29.8844C45.9185 29.2823 46.6578 28.718 47.3841 28.19C58.6402 20.017 67.081 20.3996 71.2129 21.4076C73.6884 22.0132 75.7326 23.7983 76.5436 26.2036C76.8121 27.0019 76.9546 27.8913 76.8505 28.8366L76.8497 28.837Z" fill="#D8FD00"/>
<path d="M55.1009 13.9764C52.5739 18.5363 46.814 20.1945 42.233 17.682C42.1851 17.6556 42.1352 17.6276 42.0889 17.5997C39.1644 15.9352 37.4663 12.9388 37.3372 9.80419C37.2691 8.14287 37.6421 6.44176 38.5078 4.87778C41.0327 0.31942 46.7946 -1.34032 51.3756 1.17214C52.1268 1.58314 52.7981 2.08121 53.3869 2.64865C54.8411 4.04122 55.7828 5.84596 56.1277 7.76971C56.4991 9.82192 56.1907 12.0081 55.1012 13.9764H55.1009Z" fill="#1CE496"/>
<path d="M35.3344 78.5266C34.8568 79.4243 34.2018 80.2226 33.3943 80.8428C32.2685 81.7038 30.5874 82.5274 28.6474 81.7023C28.6474 81.7023 35.7256 82.8951 36.0488 71.8908C36.2777 64.1501 30.6286 55.8282 24.7745 53.352C25.275 52.4461 25.8306 51.5157 26.4425 50.5606C38.264 58.265 40.9101 68.0339 35.3344 78.5266Z" fill="#1CE496"/>
<path d="M75.9793 31.3353C74.1022 34.4467 62.3206 37.6326 53.8037 44.197C53.0493 44.7763 52.3199 45.3851 51.6249 46.0219C50.8159 42.6532 49.7051 39.2509 48.2707 35.9547C56.3271 28.811 69.7287 24.1454 72.8987 24.7822C77.397 25.6862 75.9793 31.3353 75.9793 31.3353Z" fill="#C0DF08"/>
<path d="M53.8037 44.195C53.0493 44.7743 52.3199 45.3827 51.6253 46.0199C50.3054 40.526 48.1848 34.9412 45.1673 29.8776C45.9185 29.2755 46.6578 28.7116 47.3841 28.1836C47.3841 28.1836 51.7279 35.4511 53.8037 44.195Z" fill="#1CE496"/>
<path d="M34.3701 79.9376C33.8248 81.0015 33.2395 82.0411 32.6158 83.0557C31.223 82.7886 29.8833 82.3346 28.6466 81.7128C30.5866 82.5376 32.2677 81.7144 33.3935 80.8534C33.7484 80.5795 34.0751 80.2726 34.3701 79.9376Z" fill="#4BD9A2"/>
<path d="M38.0261 70.2887C38.8352 62.9586 35.0981 56.2109 26.4418 50.5685C24.5599 49.3411 22.4461 48.168 20.0966 47.0513C10.2863 42.3924 -2.0477 34.7802 0.28834 22.9015C1.16193 18.4535 3.27937 15.6045 5.5873 13.7832C25.1666 19.4304 39.4767 37.4069 39.4767 58.7092C39.4767 62.7068 38.9726 66.5866 38.0261 70.2887Z" fill="#2A2A2A"/>
<path d="M55.1005 13.9789C52.5736 18.5388 46.8137 20.197 42.2327 17.6845C42.1848 17.6581 42.1349 17.6302 42.0885 17.6022C41.5413 16.3105 41.2395 14.8915 41.2395 13.4016C41.2395 13.3074 41.2411 13.2152 41.2427 13.1226C41.392 7.27415 46.2034 2.57708 52.1158 2.57708C52.5451 2.57708 52.9696 2.60191 53.3858 2.65116C54.8399 4.04373 55.7816 5.84848 56.1266 7.77223C56.498 9.82444 56.1895 12.0106 55.1001 13.9789H55.1005Z" fill="#1CE496"/>
<path d="M56.1273 7.76971C54.4546 11.6022 50.6161 14.2814 46.1479 14.2814C44.3837 14.2814 42.7177 13.8625 41.2434 13.1201C39.6899 12.3379 38.3502 11.1964 37.3372 9.80419C37.2691 8.14287 37.6421 6.44176 38.5078 4.87778C41.0327 0.31942 46.7946 -1.34032 51.3756 1.17214C52.1268 1.58314 52.7981 2.08121 53.3869 2.64865C54.8411 4.04122 55.7828 5.84596 56.1277 7.76971L56.1273 7.76971Z" fill="#1CE496"/>
<path d="M38.9303 10.499C38.9303 10.8753 38.9517 11.2465 38.9949 11.611C39.2519 13.8909 40.2997 15.9353 41.8584 17.4646C39.0745 15.7753 37.4631 12.855 37.3372 9.80464C37.2691 8.14333 37.6421 6.44222 38.5078 4.87824C40.9599 0.450302 46.4679 -1.24253 50.9792 0.969659C50.2664 0.806522 49.5219 0.719043 48.7592 0.719043C43.3308 0.719043 38.9307 5.09772 38.9307 10.499H38.9303Z" fill="#1CE496"/>
<path d="M51.973 69.9383C50.6369 74.2129 48.4799 77.3693 45.9149 79.5401C43.9052 81.2396 41.644 82.3367 39.3278 82.8927C37.0812 83.4337 34.7848 83.4652 32.6163 83.0495C31.2235 82.7819 29.8838 82.3284 28.6467 81.7066C30.5867 82.5313 32.2678 81.7082 33.3936 80.8468C33.7485 80.5729 34.0752 80.2663 34.3702 79.9314C34.7432 79.5038 35.0668 79.0322 35.3337 78.5305C36.8258 75.721 37.7295 72.9642 38.0261 70.2847C38.8351 62.9545 35.098 56.2072 26.4417 50.5648C24.5599 49.3374 22.446 48.1643 20.0965 47.0472C10.2863 42.3883 -2.0477 34.7761 0.28834 22.8974C0.935017 19.606 2.26322 17.1908 3.84645 15.4188C4.40046 14.7954 4.98734 14.2524 5.58729 13.7791C6.07161 13.393 6.56384 13.0565 7.05647 12.7578C9.75248 11.1244 12.9142 10.4431 16.0561 10.6855C16.0676 10.6874 16.0775 10.6874 16.0858 10.6874C16.1868 10.6957 16.2882 10.7036 16.3891 10.7138C16.9744 10.7714 17.5514 10.8407 18.1201 10.9215C24.7655 11.8719 30.3578 14.4569 34.9903 18.0849C34.9887 18.0865 34.9903 18.0865 34.9903 18.0865C39.127 21.3252 42.4978 25.3969 45.1673 29.8776C48.1844 34.9412 50.3051 40.5256 51.6249 46.0195C53.8267 55.1906 53.797 64.1095 51.973 69.9383Z" fill="#1CE496"/>
<path d="M105.939 48.3914H116.552L106.712 80.6139H95.326L90.4278 61.2344L85.4867 80.6139H74.1005L64.3041 48.3914H74.8739L80.4166 70.0725L85.9163 48.3914H94.8964L100.396 70.0725L105.939 48.3914Z" fill="white"/>
<path d="M128.948 55.4343C135.436 55.4343 143.642 59.209 142.998 70.6249H123.19C123.749 73.1567 125.382 75.1821 129.163 75.1821C132.127 75.1821 133.545 73.5709 134.319 72.3281H142.654C141.193 79.0488 135.393 81.3043 129.163 81.3043C121.815 81.3043 114.382 77.8519 114.382 68.3693C114.382 58.8867 121.858 55.4343 128.948 55.4343ZM123.362 65.5153H134.233C133.545 62.9836 131.827 61.5566 128.948 61.5566C125.682 61.5566 124.007 63.2598 123.362 65.5153Z" fill="white"/>
<path d="M158.907 55.4343C165.395 55.4343 173.602 59.209 172.957 70.6249H153.149C153.708 73.1567 155.341 75.1821 159.122 75.1821C162.087 75.1821 163.504 73.5709 164.278 72.3281H172.613C171.153 79.0488 165.352 81.3043 159.122 81.3043C151.775 81.3043 144.341 77.8519 144.341 68.3693C144.341 58.8867 151.818 55.4343 158.907 55.4343ZM153.321 65.5153H164.192C163.504 62.9836 161.786 61.5566 158.907 61.5566C155.642 61.5566 153.966 63.2598 153.321 65.5153Z" fill="white"/>
<path d="M205.699 55.8486H186.235V61.2344H204.496V68.6916H186.235V80.6139H176.009V48.3914H205.699V55.8486Z" fill="white"/>
<path d="M213.411 54.2375C210.575 54.2375 208.556 52.5343 208.556 49.4962C208.556 46.4581 210.575 44.7089 213.411 44.7089C216.247 44.7089 218.266 46.4581 218.266 49.4962C218.266 52.5343 216.247 54.2375 213.411 54.2375ZM208.728 80.6139V56.0788H218.094V80.6139H208.728Z" fill="white"/>
<path d="M234.2 74.0773H248.122V80.6139H221.096V74.5376L234.63 62.6153H221.912V56.0788H247.692V62.201L234.2 74.0773Z" fill="white"/>
<path d="M263.404 74.0773H277.326V80.6139H250.3V74.5376L263.834 62.6153H251.116V56.0788H276.896V62.201L263.404 74.0773Z" fill="white"/>
</svg>
